{"title":"The Seeker-The Dark Is Rising-AC3-XviD-DVDRip 2007","uid":6635631,"size":1571506398,"categoryP":"video","categoryS":"movies","magnet":"?xt=urn:btih:87835cfb16667e075ae0bb44d6efb769dd8c2614&amp;dn=The+Seeker-The+Dark+Is+Rising-AC3-XviD-DVDRip+2007&amp;tr=udp%3A%2F%2Ftracker.openbittorrent.com%3A80&amp;tr=udp%3A%2F%2Fopen.demonii.com%3A1337&amp;tr=udp%3A%2F%2Ftracker.coppersurfer.tk%3A6969&amp;tr=udp%3A%2F%2Fexodus.desync.com%3A6969","seeders":4,"leechers":4,"uploader":"FatFreddy31","files":-1,"time":1314547923,"description":"[img]http://img840.imageshack.us/img840/1334/72460286.jpg[/img]\n &lt;a href=&quot;\nhttp://www.imdb.com/title/tt0484562/&quot; rel=&quot;nofollow&quot; target=&quot;_NEW&quot;&gt;\nhttp://www.imdb.com/title/tt0484562/&lt;/a&gt;\n &lt;a href=&quot;\nhttp://www.moviemeter.nl/film/42418&quot; rel=&quot;nofollow&quot; target=&quot;_NEW&quot;&gt;\nhttp://www.moviemeter.nl/film/42418&lt;/a&gt;\n\nSubs: Dutch, English (srt).\n\nGeneral\nComplete name                    : The Seeker-The Dark Is Rising-AC3-XviD-DVDRip 2007\\The Seeker-The Dark Is Rising-AC3-XviD-DVDRip 2007.avi\nFormat                           : AVI\nFormat/Info                      : Audio Video Interleave\nFile size                        : 1.46 GiB\nDuration                         : 1h 34mn\nOverall bit rate                 : 2 203 Kbps\nWriting application              : VirtualDubMod 1.5.4.1 (build 2178/release)\nWriting library                  : VirtualDubMod build 2178/release\n\nVideo\nID                               : 0\nFormat                           : MPEG-4 Visual\nFormat profile                   : Simple@L3\nFormat settings, BVOP            : No\nFormat settings, QPel            : No\nFormat settings, GMC             : No warppoints\nFormat settings, Matrix          : Default (H.263)\nCodec ID                         : XVID\nCodec ID/Hint                    : XviD\nDuration                         : 1h 34mn\nBit rate                         : 1 745 Kbps\nWidth                            : 720 pixels\nHeight                           : 304 pixels\nDisplay aspect ratio             : 2.35:1\nFrame rate                       : 25.000 fps\nResolution                       : 8 bits\nColorimetry                      : 4:2:0\nScan type                        : Progressive\nBits/(Pixel*Frame)               : 0.319\nStream size                      : 1.16 GiB (79%)\nWriting library                  : XviD 1.1.2 (UTC 2006-11-01)\n\nAudio\nID                               : 1\nFormat                           : AC-3\nFormat/Info                      : Audio Coding 3\nCodec ID                         : 2000\nDuration                         : 1h 34mn\nBit rate mode                    : Constant\nBit rate                         : 448 Kbps\nChannel(s)                       : 6 channels\nChannel positions                : Front: L C R, Surround: L R, LFE\nSampling rate                    : 48.0 KHz\nStream size                      : 304 MiB (20%)\nAlignment                        : Split accross interleaves\nInterleave, duration             : 40 ms (1.00 video frame)\nInterleave, preload duration     : 500 ms\n\nEnjoy...\n\n[img]http://img59.imageshack.us/img59/4230/theseekerthedarkisrisin.jpg[/img]","torrent":{"xt":"urn:btih:87835cfb16667e075ae0bb44d6efb769dd8c2614","amp;dn":"The+Seeker-The+Dark+Is+Rising-AC3-XviD-DVDRip+2007","amp;tr":["udp%3A%2F%2Ftracker.openbittorrent.com%3A80","udp%3A%2F%2Fopen.demonii.com%3A1337","udp%3A%2F%2Ftracker.coppersurfer.tk%3A6969","udp%3A%2F%2Fexodus.desync.com%3A6969"],"infoHash":"87835cfb16667e075ae0bb44d6efb769dd8c2614","infoHashBuffer":{"type":"Buffer","data":[135,131,92,251,22,102,126,7,90,224,187,68,214,239,183,105,221,140,38,20]},"announce":[],"urlList":[]}}